<svg width="179" height="62" viewBox="0 0 179 62" fill="none" xmlns="http://www.w3.org/2000/svg">
<rect x="62.5" y="0.5" width="95" height="25" stroke="#000D35"/>
<path d="M157.5 7.5H166C169.038 7.5 171.5 9.96243 171.5 13C171.5 16.0376 169.038 18.5 166 18.5H157.5V7.5Z" stroke="#000D35"/>
<rect x="172" y="13" width="7" height="1" fill="#000D35"/>
<path d="M0.5 0.5H90C96.9036 0.5 102.5 6.09644 102.5 13C102.5 19.9036 96.9036 25.5 90 25.5H0.5V0.5Z" fill="#F0F7F9" stroke="#000D35"/>
<path fill-rule="evenodd" clip-rule="evenodd" d="M11.457 15.9146H14.2001V18.9998H11.457V15.9146Z" fill="#000D35"/>
<path fill-rule="evenodd" clip-rule="evenodd" d="M17.0961 7H11.5322V14.1212H18.9994V8.8528C19.0025 7.85246 18.1451 7 17.0961 7Z" fill="#000D35"/>
<path fill-rule="evenodd" clip-rule="evenodd" d="M7 15.9668V16.8218C7 17.7827 7.71219 18.6043 8.62208 18.6043H9.40017V15.9668H7Z" fill="#000D35"/>
<path fill-rule="evenodd" clip-rule="evenodd" d="M9.40017 7H8.62208C7.74768 7 7 7.78261 7 8.78247V9.63749H9.40017V7Z" fill="#000D35"/>
<path fill-rule="evenodd" clip-rule="evenodd" d="M7 11.4834H9.40017V14.1209H7V11.4834Z" fill="#000D35"/>
<path fill-rule="evenodd" clip-rule="evenodd" d="M15.8027 18.6043H16.5808C17.4552 18.6043 18.2029 17.8208 18.2029 16.8199V15.9668H15.8027V18.6043Z" fill="#000D35"/>
<path fill-rule="evenodd" clip-rule="evenodd" d="M101.82 53.6926C102.06 53.8136 102.06 54.1864 101.82 54.3074L97.5093 56.4875C97.2624 56.6387 96.9688 56.464 96.9688 56.1818V54.7273H87.9841C88.3444 55.295 88.6514 55.9635 88.9216 56.6017C89.4621 57.8278 90.0159 59.0909 90.8066 59.0909H91.8876V57.9992C91.8876 57.7942 92.0477 57.6364 92.2513 57.6364H95.8612C96.0647 57.6364 96.2215 57.7942 96.2215 57.9992V61.6338C96.2215 61.8388 96.0647 62 95.8612 62H92.2513C92.0477 62 91.8876 61.8388 91.8876 61.6338V60.5455H90.8066C89.0784 60.5455 88.301 58.7617 87.6004 57.1929C87.0699 55.9769 86.5161 54.7273 85.7487 54.7273H81.6851C81.3581 55.9769 80.2305 56.9074 78.8893 56.9074C77.2978 56.9074 76 55.6007 76 53.9983C76 52.396 77.2978 51.0892 78.8893 51.0892C80.2305 51.0892 81.3581 52.0231 81.6851 53.2727H82.8595C83.6268 53.2727 84.1807 52.0231 84.7112 50.8071C85.4118 49.2383 86.1891 47.4545 87.9174 47.4545H89.1251C89.4287 46.6013 90.2194 46 91.1669 46C92.3613 46 93.3322 46.9775 93.3322 48.1801C93.3322 49.3861 92.3613 50.3636 91.1669 50.3636C90.2194 50.3636 89.4287 49.7623 89.1251 48.9091H87.9174C87.1267 48.9091 86.5728 50.1688 86.0323 51.3983C85.7621 52.0332 85.4552 52.705 85.0948 53.2727H96.9688V51.8182C96.9688 51.5394 97.2724 51.3512 97.5093 51.5091L101.82 53.6926Z" fill="#000D35"/>
</svg>
