<svg width="230" height="230" viewBox="0 0 230 230" fill="none" xmlns="http://www.w3.org/2000/svg">
<path d="M35.4333 36.6208L35.4332 36.6198C35.4011 36.311 35.2632 36.0227 35.047 35.8015C34.7962 35.5423 34.4524 35.3883 34.0905 35.3797L34.0898 35.3796L25.1784 35.1797L25.1772 35.1797C24.6976 35.1701 24.2498 35.4177 24.0131 35.8392C23.7773 36.259 23.7961 36.7696 24.04 37.1783C24.2829 37.5856 24.721 37.8458 25.197 37.8555C25.1973 37.8555 25.1975 37.8556 25.1978 37.8556L32.8869 38.0294L33.6684 45.6807C33.6684 45.681 33.6684 45.6813 33.6684 45.6815C33.7158 46.1553 34.0099 46.5714 34.4351 46.7814C34.8617 46.9921 35.3722 46.9705 35.7721 46.7022C36.1735 46.4329 36.385 45.967 36.3375 45.4896L36.3373 45.4884L35.4333 36.6208Z" fill="#8E65F1" stroke="#8E65F1"/>
<path fill-rule="evenodd" clip-rule="evenodd" d="M33.4747 39.7547C15.347 59.4294 4.27539 85.7055 4.27539 114.567C4.27539 175.56 53.7199 225.005 114.713 225.005C175.706 225.005 225.15 175.56 225.15 114.567C225.15 53.5744 175.706 4.12988 114.713 4.12988C111.027 4.12988 107.383 4.31046 103.79 4.66324V0.644405C107.385 0.303983 111.029 0.129883 114.713 0.129883C177.915 0.129883 229.15 51.3653 229.15 114.567C229.15 177.769 177.915 229.005 114.713 229.005C51.5108 229.005 0.275391 177.769 0.275391 114.567C0.275391 84.6009 11.7935 57.3245 30.644 36.924L33.4747 39.7547Z" fill="url(#paint0_linear_7030:4111)"/>
<defs>
<linearGradient id="paint0_linear_7030:4111" x1="0.275391" y1="112.487" x2="229.15" y2="112.487" gradientUnits="userSpaceOnUse">
<stop stop-color="#9C55F6"/>
<stop offset="1" stop-color="#2CD2CA"/>
</linearGradient>
</defs>
</svg>
