<svg width="83" height="51" viewBox="0 0 83 51" fill="none" xmlns="http://www.w3.org/2000/svg">
<mask id="mask0_7030:3965" style="mask-type:alpha" maskUnits="userSpaceOnUse" x="10" y="35" width="63" height="16">
<path d="M10.1943 35.9814H72.562V50.5488H10.1943V35.9814Z" fill="#000D35"/>
</mask>
<g mask="url(#mask0_7030:3965)">
<path fill-rule="evenodd" clip-rule="evenodd" d="M14.6458 47.5329H15.8751V39.3781H14.6458V47.5329ZM16.0667 36.808C16.0667 37.2728 15.7154 37.6293 15.2526 37.6293C14.7893 37.6293 14.4385 37.2728 14.4385 36.808C14.4385 36.3271 14.7893 35.9863 15.2526 35.9863C15.7154 35.9863 16.0667 36.3271 16.0667 36.808Z" fill="#000D35"/>
<path fill-rule="evenodd" clip-rule="evenodd" d="M25.3888 43.4711C25.3888 41.6726 24.1276 40.3704 22.3559 40.3704C20.5681 40.3704 19.3065 41.6726 19.3065 43.4711C19.3065 45.2695 20.5681 46.5564 22.3559 46.5564C24.1276 46.5564 25.3888 45.2695 25.3888 43.4711ZM26.6338 39.3784V50.5407H25.3888V45.781C24.7659 46.9277 23.6167 47.5952 22.1162 47.5952C19.7216 47.5952 18.0615 45.8741 18.0615 43.44C18.0615 41.006 19.7216 39.3159 22.1001 39.3159C23.6009 39.3159 24.7659 39.9825 25.3888 41.1454V39.3784H26.6338Z" fill="#000D35"/>
<path fill-rule="evenodd" clip-rule="evenodd" d="M37.0423 39.3784V47.5332H35.7973V45.6885C35.2387 46.9596 34.1214 47.5642 32.6048 47.5795C30.6415 47.5795 29.46 46.3704 29.46 44.4011V39.3784H30.7049V44.091C30.7049 45.5487 31.5833 46.4171 33.0357 46.4171C34.7758 46.3852 35.7973 45.1451 35.7973 43.3785V39.3784H37.0423Z" fill="#000D35"/>
<path fill-rule="evenodd" clip-rule="evenodd" d="M46.5396 43.781V43.1607C46.3957 41.5169 45.1822 40.3702 43.5225 40.3702C41.7347 40.3702 40.4735 41.6724 40.4735 43.4708C40.4735 45.2693 41.7347 46.5562 43.5225 46.5562C45.1822 46.5562 46.3957 45.4243 46.5396 43.781ZM47.785 39.3781V47.5325H46.5396V45.7961C45.9171 46.9275 44.7675 47.5949 43.2832 47.5949C40.8891 47.5949 39.2285 45.8738 39.2285 43.4398C39.2285 41.0211 40.8725 39.3157 43.2351 39.3157C44.7518 39.3004 45.9009 39.9666 46.5396 41.1141V39.3781H47.785Z" fill="#000D35"/>
<path fill-rule="evenodd" clip-rule="evenodd" d="M54.9862 47.5329H56.2159V39.3781H54.9862V47.5329ZM56.4075 36.808C56.4075 37.2728 56.0562 37.6293 55.593 37.6293C55.1301 37.6293 54.7793 37.2728 54.7793 36.808C54.7793 36.3271 55.1301 35.9863 55.593 35.9863C56.0562 35.9863 56.4075 36.3271 56.4075 36.808Z" fill="#000D35"/>
<path fill-rule="evenodd" clip-rule="evenodd" d="M63.0802 46.9749C62.4735 47.3624 61.8191 47.5795 61.1966 47.5795C59.9197 47.5795 59.0264 46.7106 59.0264 44.9594V36.0098H60.2547V39.3784H62.7511V40.5718H60.2547V44.758C60.2547 45.9204 60.6541 46.4634 61.3882 46.4634C61.8033 46.4634 62.2504 46.3083 62.7136 46.0449L63.0802 46.9749Z" fill="#000D35"/>
<path fill-rule="evenodd" clip-rule="evenodd" d="M50.6602 47.5156H51.8894V35.9814H50.6602V47.5156Z" fill="#000D35"/>
<path fill-rule="evenodd" clip-rule="evenodd" d="M10.1943 47.5156H11.4236V35.9814H10.1943V47.5156Z" fill="#000D35"/>
<path fill-rule="evenodd" clip-rule="evenodd" d="M72.5618 39.4487V46.6429C72.5618 49.072 71.0268 50.564 68.5258 50.5487C67.2749 50.5181 65.9451 50.0107 65.1059 49.2266L65.4861 48.3495C66.2457 49.0265 67.3379 49.4723 68.4147 49.5186C70.2349 49.5186 71.3274 48.4422 71.3274 46.6276V45.1372C70.7731 46.2595 69.7444 46.8435 68.272 46.8588C66.1831 46.8588 64.916 45.6599 64.916 43.7072V39.4487H66.1508V43.4C66.1508 44.8449 67.0373 45.7058 68.5258 45.7058C70.2988 45.6752 71.3274 44.5062 71.3274 42.6002V39.4487H72.5618Z" fill="#000D35"/>
</g>
<path d="M4.32974 4.02633C4.30747 4.04797 4.2852 4.06962 4.26293 4.09126C2.00644 6.3115 0.645868 9.06884 0.181207 11.9364C0.0627646 12.6653 0.00202466 13.4011 0 14.1369V14.2215C0.00202466 14.9288 0.0577029 15.6361 0.166022 16.3365C0.505154 18.5194 1.3626 20.6412 2.73735 22.5132C3.19188 23.132 3.70311 23.7242 4.269 24.2819C4.28925 24.3016 4.3095 24.3203 4.32974 24.34C5.55973 25.5362 6.93346 26.4559 8.39223 27.116C13.7647 29.5419 20.3043 28.4165 25.1959 24.3724C25.2081 24.3616 25.2212 24.3508 25.2344 24.34C30.7567 19.748 35.8244 15.5889 41.2788 15.5889C46.7323 15.5889 51.8 19.748 57.3223 24.34C58.8226 25.5863 60.4777 26.5583 62.2078 27.236C64.4724 28.1243 66.8645 28.509 69.202 28.3496C72.489 28.1263 75.6668 26.8278 78.228 24.34C78.2482 24.3203 78.2674 24.3016 78.2867 24.2819C78.8546 23.7242 79.3658 23.132 79.8204 22.5132C81.1951 20.6412 82.0525 18.5194 82.3907 16.3365C82.6174 14.8796 82.6124 13.3932 82.3765 11.9364C81.9118 9.06884 80.5502 6.3115 78.2948 4.09126C78.2715 4.06962 78.2502 4.04699 78.2269 4.02633C75.6668 1.53853 72.489 0.249863 69.202 0.0334462C66.8615 -0.120997 64.4663 0.268553 62.2007 1.15389C60.4737 1.83069 58.8195 2.79374 57.3223 4.02633C51.7788 8.58977 46.7596 12.7784 41.2788 12.7784C35.7981 12.7784 30.7789 8.58977 25.2344 4.02633C25.2243 4.01748 25.2152 4.00961 25.205 4.00174C22.0294 1.39884 18.1562 0 14.3599 0C12.3059 0 10.2752 0.409224 8.38818 1.25718C6.93042 1.91332 5.55871 2.83112 4.32974 4.02633Z" fill="url(#paint0_radial_7030:3965)"/>
<defs>
<radialGradient id="paint0_radial_7030:3965" cx="0" cy="0" r="1" gradientUnits="userSpaceOnUse" gradientTransform="translate(-1.992 7.87316) scale(94.5315 49.8809)">
<stop stop-color="#1CE5C3"/>
<stop offset="0.10253" stop-color="#1CE5C3"/>
<stop offset="0.474728" stop-color="#5440D7"/>
<stop offset="0.630807" stop-color="#8B2CE4"/>
<stop offset="0.795714" stop-color="#D421EB"/>
<stop offset="1" stop-color="#AC39FD"/>
</radialGradient>
</defs>
</svg>
